#!OML:ASF F:\VICON\USERDATA\INSTALL\rory3\rory3.ASF
:FULLY-SPECIFIED
:DEGREES
379
root -12.2393 17.5985 15.3351 -8.41243 -44.3249 8.56756
lowerback 10.3899 -0.333028 -7.22297
upperback 1.0275 -1.26508 0.536848
thorax -4.58901 -0.49305 4.81811
lowerneck -19.6557 -3.97013 -9.79614
upperneck 24.7589 -4.32112 6.14081
head 11.7197 -2.14386 3.2374
rclavicle -3.32964e-015 -6.36111e-015
rhumerus -37.4312 -15.7245 -76.8468
rradius 26.4073
rwrist 14.0991
rhand -10.2056 9.37918
rfingers 7.12502
rthumb 15.7857 -19.9972
lclavicle -3.32964e-015 -6.36111e-015
lhumerus -31.9002 -1.67278 84.8834
lradius 34.8757
lwrist -7.07801
lhand -16.4595 25.2224
lfingers 7.12502
lthumb 9.75683 54.9764
rfemur -24.9943 1.61109 14.4103
rtibia 24.4948
rfoot -7.70548 -0.429324
rtoes -13.9793
lfemur 21.7978 -4.23324 -30.4905
ltibia 4.43808
lfoot -4.33896 -7.86156
ltoes -16.0901
380
root -12.3722 17.6238 15.4424 -7.80663 -44.2682 7.94772
lowerback 10.1758 -0.421911 -6.68188
upperback 0.900734 -1.30291 0.61929
thorax -4.60752 -0.516291 4.60043
lowerneck -19.4883 -3.94489 -9.67093
upperneck 24.9259 -4.30041 5.94823
head 11.7411 -2.15374 3.15065
rclavicle 4.18442e-014 1.43125e-014
rhumerus -37.6244 -15.8493 -76.7303
rradius 26.2349
rwrist 14.1307
rhand -10.0919 9.22826
rfingers 7.12502
rthumb 15.8952 -20.1394
lclavicle 4.18442e-014 1.43125e-014
lhumerus -32.1461 -1.4054 84.8439
lradius 34.6768
lwrist -6.90678
lhand -16.4851 25.4561
lfingers 7.12502
lthumb 9.73214 55.2113
rfemur -24.7585 1.65127 14.9048
rtibia 24.3122
rfoot -6.46274 0.1318
rtoes -13.951
lfemur 21.224 -4.68108 -30.0885
ltibia 6.28474
lfoot -4.08042 -7.79292
ltoes -19.2327
381
root -12.5036 17.6534 15.5496 -7.01228 -44.4212 7.07021
lowerback 9.90775 -0.454892 -5.9725
upperback 0.831583 -1.24128 0.777311
thorax -4.54897 -0.497869 4.3516
lowerneck -19.6517 -3.90758 -9.48263
upperneck 25.2503 -4.25784 5.76945
head 11.8855 -2.14237 3.06295
rclavicle 5.3324e-014 3.18055e-015
rhumerus -37.6974 -16.4592 -76.3844
rradius 25.9111
rwrist 14.6561
rhand -10.1782 9.29381
rfingers 7.12502
rthumb 15.8121 -20.0804
lclavicle 5.3324e-014 3.18055e-015
lhumerus -32.2876 -0.894822 84.7477
lradius 34.4307
lwrist -6.9927
lhand -16.3783 25.5506
lfingers 7.12502
lthumb 9.83515 55.3009
rfemur -24.533 1.76384 15.6369
rtibia 24.1233
rfoot -4.96808 0.81773
rtoes -12.4445
lfemur 20.4408 -4.94782 -29.4467
ltibia 8.43466
lfoot -3.82091 -7.64339
ltoes -21.2872
382
root -12.6371 17.6753 15.6568 -6.26895 -44.6326 6.18527
lowerback 9.72563 -0.477508 -5.3392
upperback 0.711819 -1.18112 1.00199
thorax -4.58737 -0.473838 4.21905
lowerneck -19.6366 -3.86943 -9.51714
upperneck 25.4716 -4.19126 5.71588
head 11.9622 -2.12772 3.06335
rclavicle 3.70236e-014 -1.59028e-015
rhumerus -37.8862 -16.8368 -75.967
rradius 25.6313
rwrist 15.0296
rhand -10.4375 9.20908
rfingers 7.12502
rthumb 15.5623 -20.1848
lclavicle 3.70236e-014 -1.59028e-015
lhumerus -32.5317 -0.350135 84.6957
lradius 34.0653
lwrist -7.21133
lhand -15.8413 25.796
lfingers 7.12502
lthumb 10.3532 55.5211
rfemur -24.1692 1.92229 16.379
rtibia 24.004
rfoot -3.21509 1.48299
rtoes -10.2485
lfemur 19.6917 -5.14405 -28.7723
ltibia 10.6326
lfoot -3.4838 -7.58781
ltoes -22.4766
383
root -12.7696 17.6825 15.7688 -5.7409 -44.8279 5.47801
lowerback 9.59573 -0.481389 -4.78666
upperback 0.62026 -1.11186 1.17527
thorax -4.62492 -0.445673 4.07756
lowerneck -19.4211 -3.82669 -9.59402
upperneck 25.4709 -4.13539 5.73452
head 11.9162 -2.11227 3.09373
rclavicle 6.97734e-014 -1.59028e-015
rhumerus -38.1275 -17.0607 -75.6242
rradius 25.4932
rwrist 15.1524
rhand -10.4987 9.18156
rfingers 7.12502
rthumb 15.5034 -20.2169
lclavicle 6.97734e-014 -1.59028e-015
lhumerus -32.8178 -0.040317 84.6999
lradius 33.7323
lwrist -7.26465
lhand -15.5427 26.032
lfingers 7.12502
lthumb 10.6412 55.7425
rfemur -23.6943 1.55276 17.1096
rtibia 23.9915
rfoot -1.5449 2.43267
rtoes -6.7848
lfemur 19.0728 -5.17683 -28.2423
ltibia 12.823
lfoot -3.23324 -7.6454
ltoes -25.7481
384
root -12.9034 17.6944 15.8799 -5.47548 -44.9871 5.15605
lowerback 9.31857 -0.492902 -4.48814
upperback 0.777919 -1.08192 1.14778
thorax -4.31339 -0.449337 3.86693
lowerneck -19.8975 -3.80497 -9.25304
upperneck 25.5091 -4.16048 5.7161
head 12.0181 -2.0838 3.02339
rclavicle -3.3694e-014 3.18055e-015
rhumerus -37.9158 -17.4843 -75.6858
rradius 25.4183
rwrist 15.2669
rhand -10.3272 9.18998
rfingers 7.12502
rthumb 15.6685 -20.1956
lclavicle -3.3694e-014 3.18055e-015
lhumerus -32.6392 0.176176 84.4683
lradius 33.4472
lwrist -7.13737
lhand -15.5544 25.8457
lfingers 7.12502
lthumb 10.63 55.5568
rfemur -23.3058 0.968336 17.6135
rtibia 24.1552
rfoot -0.608096 3.29331
rtoes -2.37315
lfemur 18.4083 -5.20272 -27.9715
ltibia 14.916
lfoot -2.30713 -7.88256
ltoes -26.2775
385
root -13.0381 17.7219 15.9886 -5.36697 -45.0906 5.0847
lowerback 9.04229 -0.49445 -4.35555
upperback 0.927803 -1.06009 1.06469
thorax -4.00826 -0.452913 3.69387
lowerneck -20.457 -3.83251 -9.06907
upperneck 25.6628 -4.23179 5.7888
head 12.1929 -2.07984 3.00831
rclavicle 1.30701e-014 4.77083e-015
rhumerus -37.7376 -17.6572 -75.8887
rradius 25.4889
rwrist 15.0291
rhand -10.2809 8.99295
rfingers 7.12502
rthumb 15.7131 -20.3891
lclavicle 1.30701e-014 4.77083e-015
lhumerus -32.4849 0.434473 84.2175
lradius 33.2572
lwrist -6.93172
lhand -15.1636 25.6049
lfingers 7.12502
lthumb 11.007 55.2963
rfemur -22.9683 0.307901 17.9396
rtibia 24.4309
rfoot -0.881983 3.78428
rtoes -1.80281
lfemur 17.6099 -5.2785 -27.8646
ltibia 17.0155
lfoot -0.819421 -8.21786
ltoes -24.8652
